<svg width="64" height="34" viewBox="0 0 64 34" fill="none" xmlns="http://www.w3.org/2000/svg">
<mask id="path-1-inside-1_130_885" fill="white">
<path d="M0 8C0 3.58172 3.58172 0 8 0H56C60.4183 0 64 3.58172 64 8V26C64 30.4183 60.4183 34 56 34H8C3.58172 34 0 30.4183 0 26V8Z"/>
</mask>
<path d="M0 8C0 3.58172 3.58172 0 8 0H56C60.4183 0 64 3.58172 64 8V26C64 30.4183 60.4183 34 56 34H8C3.58172 34 0 30.4183 0 26V8Z" fill="#5F5B63"/>
<path d="M8 0V1H56V0V-1H8V0ZM64 8H63V26H64H65V8H64ZM56 34V33H8V34V35H56V34ZM0 26H1V8H0H-1V26H0ZM8 34V33C4.13401 33 1 29.866 1 26H0H-1C-1 30.9706 3.02944 35 8 35V34ZM64 26H63C63 29.866 59.866 33 56 33V34V35C60.9706 35 65 30.9706 65 26H64ZM56 0V1C59.866 1 63 4.13401 63 8H64H65C65 3.02944 60.9706 -1 56 -1V0ZM8 0V-1C3.02944 -1 -1 3.02944 -1 8H0H1C1 4.13401 4.13401 1 8 1V0Z" fill="#2C2C2C" mask="url(#path-1-inside-1_130_885)"/>
</svg>
