<svg width="31" height="35" viewBox="0 0 31 35" fill="none" xmlns="http://www.w3.org/2000/svg">
<path d="M22.4375 13.275L8.5625 4.84127M2.04125 9.31002L15.5 17.5163L28.9587 9.31002M15.5 33.88V17.5M29.375 24V11C29.3744 10.4301 29.2317 9.87034 28.9611 9.37691C28.6905 8.88349 28.3016 8.47374 27.8333 8.18877L17.0417 1.68877C16.5729 1.40353 16.0412 1.25336 15.5 1.25336C14.9588 1.25336 14.4271 1.40353 13.9583 1.68877L3.16667 8.18877C2.6984 8.47374 2.30947 8.88349 2.03888 9.37691C1.76829 9.87034 1.62555 10.4301 1.625 11V24C1.62555 24.57 1.76829 25.1297 2.03888 25.6231C2.30947 26.1166 2.6984 26.5263 3.16667 26.8113L13.9583 33.3113C14.4271 33.5965 14.9588 33.7467 15.5 33.7467C16.0412 33.7467 16.5729 33.5965 17.0417 33.3113L27.8333 26.8113C28.3016 26.5263 28.6905 26.1166 28.9611 25.6231C29.2317 25.1297 29.3744 24.57 29.375 24Z" stroke="#F5F5F5" stroke-width="2" stroke-linecap="round" stroke-linejoin="round"/>
</svg>
