<svg width="335" height="56" viewBox="0 0 335 56" fill="none" xmlns="http://www.w3.org/2000/svg">
<path d="M0 16C0 7.16344 7.16344 0 16 0H319C327.837 0 335 7.16344 335 16V40C335 48.8366 327.837 56 319 56H16C7.16345 56 0 48.8366 0 40V16Z" fill="#0066FF"/>
<path d="M0 16C0 7.16344 7.16344 0 16 0H319C327.837 0 335 7.16344 335 16V40C335 48.8366 327.837 56 319 56H16C7.16345 56 0 48.8366 0 40V16Z" fill="#0066FF"/>
<path d="M142.796 31.872H138.348L137.612 34H135.26L139.276 22.816H141.884L145.9 34H143.532L142.796 31.872ZM142.188 30.08L140.572 25.408L138.956 30.08H142.188ZM146.825 29.568C146.825 28.6507 147.012 27.8507 147.385 27.168C147.758 26.4747 148.276 25.9413 148.937 25.568C149.598 25.184 150.356 24.992 151.209 24.992C152.308 24.992 153.214 25.2693 153.929 25.824C154.654 26.368 155.14 27.136 155.385 28.128H152.969C152.841 27.744 152.622 27.4453 152.313 27.232C152.014 27.008 151.641 26.896 151.193 26.896C150.553 26.896 150.046 27.1307 149.673 27.6C149.3 28.0587 149.113 28.7147 149.113 29.568C149.113 30.4107 149.3 31.0667 149.673 31.536C150.046 31.9947 150.553 32.224 151.193 32.224C152.1 32.224 152.692 31.8187 152.969 31.008H155.385C155.14 31.968 154.654 32.7307 153.929 33.296C153.204 33.8613 152.297 34.144 151.209 34.144C150.356 34.144 149.598 33.9573 148.937 33.584C148.276 33.2 147.758 32.6667 147.385 31.984C147.012 31.2907 146.825 30.4853 146.825 29.568ZM165.266 29.376C165.266 29.696 165.245 29.984 165.202 30.24H158.722C158.775 30.88 158.999 31.3813 159.394 31.744C159.789 32.1067 160.274 32.288 160.85 32.288C161.682 32.288 162.274 31.9307 162.626 31.216H165.042C164.786 32.0693 164.295 32.7733 163.57 33.328C162.845 33.872 161.954 34.144 160.898 34.144C160.045 34.144 159.277 33.9573 158.594 33.584C157.922 33.2 157.394 32.6613 157.01 31.968C156.637 31.2747 156.45 30.4747 156.45 29.568C156.45 28.6507 156.637 27.8453 157.01 27.152C157.383 26.4587 157.906 25.9253 158.578 25.552C159.25 25.1787 160.023 24.992 160.898 24.992C161.741 24.992 162.493 25.1733 163.154 25.536C163.826 25.8987 164.343 26.416 164.706 27.088C165.079 27.7493 165.266 28.512 165.266 29.376ZM162.946 28.736C162.935 28.16 162.727 27.7013 162.322 27.36C161.917 27.008 161.421 26.832 160.834 26.832C160.279 26.832 159.81 27.0027 159.426 27.344C159.053 27.6747 158.823 28.1387 158.738 28.736H162.946ZM169.141 26.416C169.429 26.0107 169.824 25.6747 170.325 25.408C170.837 25.1307 171.418 24.992 172.069 24.992C172.826 24.992 173.509 25.1787 174.117 25.552C174.736 25.9253 175.221 26.4587 175.573 27.152C175.936 27.8347 176.117 28.6293 176.117 29.536C176.117 30.4427 175.936 31.248 175.573 31.952C175.221 32.6453 174.736 33.184 174.117 33.568C173.509 33.952 172.826 34.144 172.069 34.144C171.418 34.144 170.842 34.0107 170.341 33.744C169.85 33.4773 169.45 33.1413 169.141 32.736V38.224H166.901V25.136H169.141V26.416ZM173.829 29.536C173.829 29.0027 173.717 28.544 173.493 28.16C173.28 27.7653 172.992 27.4667 172.629 27.264C172.277 27.0613 171.893 26.96 171.477 26.96C171.072 26.96 170.688 27.0667 170.325 27.28C169.973 27.4827 169.685 27.7813 169.461 28.176C169.248 28.5707 169.141 29.0347 169.141 29.568C169.141 30.1013 169.248 30.5653 169.461 30.96C169.685 31.3547 169.973 31.6587 170.325 31.872C170.688 32.0747 171.072 32.176 171.477 32.176C171.893 32.176 172.277 32.0693 172.629 31.856C172.992 31.6427 173.28 31.3387 173.493 30.944C173.717 30.5493 173.829 30.08 173.829 29.536ZM180.353 26.976V31.264C180.353 31.5627 180.422 31.7813 180.561 31.92C180.71 32.048 180.955 32.112 181.297 32.112H182.337V34H180.929C179.041 34 178.097 33.0827 178.097 31.248V26.976H177.041V25.136H178.097V22.944H180.353V25.136H182.337V26.976H180.353ZM183.372 29.536C183.372 28.64 183.548 27.8453 183.9 27.152C184.262 26.4587 184.748 25.9253 185.356 25.552C185.974 25.1787 186.662 24.992 187.42 24.992C188.081 24.992 188.657 25.1253 189.148 25.392C189.649 25.6587 190.049 25.9947 190.348 26.4V25.136H192.604V34H190.348V32.704C190.06 33.12 189.66 33.4667 189.148 33.744C188.646 34.0107 188.065 34.144 187.404 34.144C186.657 34.144 185.974 33.952 185.356 33.568C184.748 33.184 184.262 32.6453 183.9 31.952C183.548 31.248 183.372 30.4427 183.372 29.536ZM190.348 29.568C190.348 29.024 190.241 28.56 190.028 28.176C189.814 27.7813 189.526 27.4827 189.164 27.28C188.801 27.0667 188.412 26.96 187.996 26.96C187.58 26.96 187.196 27.0613 186.844 27.264C186.492 27.4667 186.204 27.7653 185.98 28.16C185.766 28.544 185.66 29.0027 185.66 29.536C185.66 30.0693 185.766 30.5387 185.98 30.944C186.204 31.3387 186.492 31.6427 186.844 31.856C187.206 32.0693 187.59 32.176 187.996 32.176C188.412 32.176 188.801 32.0747 189.164 31.872C189.526 31.6587 189.814 31.36 190.028 30.976C190.241 30.5813 190.348 30.112 190.348 29.568ZM197.032 26.512C197.32 26.0427 197.693 25.6747 198.152 25.408C198.621 25.1413 199.154 25.008 199.752 25.008V27.36H199.16C198.456 27.36 197.922 27.5253 197.56 27.856C197.208 28.1867 197.032 28.7627 197.032 29.584V34H194.792V25.136H197.032V26.512Z" fill="white"/>
</svg>
