<svg width="20" height="27" viewBox="0 0 20 27" fill="none" xmlns="http://www.w3.org/2000/svg">
<path d="M5 12.25V7.25C5 5.5924 5.52678 4.00268 6.46447 2.83058C7.40215 1.65848 8.67392 1 10 1C11.3261 1 12.5979 1.65848 13.5355 2.83058C14.4732 4.00268 15 5.5924 15 7.25V12.25M3 12.25H17C18.1046 12.25 19 13.3693 19 14.75V23.5C19 24.8807 18.1046 26 17 26H3C1.89543 26 1 24.8807 1 23.5V14.75C1 13.3693 1.89543 12.25 3 12.25Z" stroke="#F3F3F3" stroke-width="2" stroke-linecap="round" stroke-linejoin="round"/>
</svg>
