<svg width="27" height="35" viewBox="0 0 27 35" fill="none" xmlns="http://www.w3.org/2000/svg">
<path d="M16.5833 1.25H4.25001C3.43225 1.25 2.648 1.59241 2.06976 2.2019C1.49152 2.8114 1.16667 3.63805 1.16667 4.5V30.5C1.16667 31.362 1.49152 32.1886 2.06976 32.7981C2.648 33.4076 3.43225 33.75 4.25001 33.75H22.75C23.5678 33.75 24.352 33.4076 24.9303 32.7981C25.5085 32.1886 25.8333 31.362 25.8333 30.5V11M16.5833 1.25L25.8333 11M16.5833 1.25L16.5833 11H25.8333M19.6667 19.125H7.33334M19.6667 25.625H7.33334M10.4167 12.625H7.33334" stroke="#F5F5F5" stroke-width="2" stroke-linecap="round" stroke-linejoin="round"/>
</svg>
