<svg width="16" height="16" viewBox="0 0 16 16" fill="none" xmlns="http://www.w3.org/2000/svg">
<path d="M0.666668 0.666656H3.33333L5.12 9.59332C5.18096 9.90025 5.34794 10.176 5.5917 10.3722C5.83546 10.5684 6.14047 10.6727 6.45333 10.6667H12.9333C13.2462 10.6727 13.5512 10.5684 13.795 10.3722C14.0387 10.176 14.2057 9.90025 14.2667 9.59332L15.3333 3.99999H4M6.66667 14C6.66667 14.3682 6.36819 14.6667 6 14.6667C5.63181 14.6667 5.33333 14.3682 5.33333 14C5.33333 13.6318 5.63181 13.3333 6 13.3333C6.36819 13.3333 6.66667 13.6318 6.66667 14ZM14 14C14 14.3682 13.7015 14.6667 13.3333 14.6667C12.9651 14.6667 12.6667 14.3682 12.6667 14C12.6667 13.6318 12.9651 13.3333 13.3333 13.3333C13.7015 13.3333 14 13.6318 14 14Z" stroke="#F5F5F5" stroke-width="1.6" stroke-linecap="round" stroke-linejoin="round"/>
</svg>
