<svg width="22" height="22" viewBox="0 0 22 22" fill="none" xmlns="http://www.w3.org/2000/svg">
<g clip-path="url(#clip0_46_527)">
<path d="M7.33334 9.16667V6.41667C7.33334 4.39175 8.97509 2.75 11 2.75C13.0249 2.75 14.6667 4.39175 14.6667 6.41667V9.16667" stroke="#A2A2A7" stroke-width="1.3" stroke-linecap="round" stroke-linejoin="round"/>
<path d="M15.5833 19.25H6.41668C5.40376 19.25 4.58334 18.4296 4.58334 17.4167V11C4.58334 9.98707 5.40376 9.16666 6.41668 9.16666H15.5833C16.5963 9.16666 17.4167 9.98707 17.4167 11V17.4167C17.4167 18.4296 16.5963 19.25 15.5833 19.25Z" stroke="#A2A2A7" stroke-width="1.3" stroke-linecap="round" stroke-linejoin="round"/>
<path d="M8.25001 14.2459C8.24726 14.2459 8.24542 14.2477 8.24542 14.2505C8.24542 14.2532 8.24726 14.2551 8.25001 14.2551C8.25276 14.2551 8.25459 14.2532 8.25459 14.2505C8.25459 14.2477 8.25276 14.2459 8.25001 14.2459Z" stroke="#A2A2A7" stroke-width="1.5" stroke-linecap="round" stroke-linejoin="round"/>
<path d="M11.0046 14.2459C11.0018 14.2459 11 14.2477 11 14.2505C11 14.2532 11.0046 14.2551 11.0046 14.2551C11.0073 14.2551 11.0092 14.2532 11.0092 14.2505C11.0092 14.2477 11.0073 14.2459 11.0046 14.2459Z" stroke="#A2A2A7" stroke-width="1.5" stroke-linecap="round" stroke-linejoin="round"/>
<path d="M13.75 14.2459C13.7473 14.2459 13.7454 14.2477 13.7454 14.2505C13.7454 14.2532 13.7473 14.2551 13.75 14.2551C13.7528 14.2551 13.7546 14.2532 13.7546 14.2505C13.7546 14.2477 13.7528 14.2459 13.75 14.2459Z" stroke="#A2A2A7" stroke-width="1.5" stroke-linecap="round" stroke-linejoin="round"/>
</g>
<defs>
<clipPath id="clip0_46_527">
<rect width="22" height="22" fill="white"/>
</clipPath>
</defs>
</svg>
