<svg width="335" height="56" viewBox="0 0 335 56" fill="none" xmlns="http://www.w3.org/2000/svg">
<path d="M0 16C0 7.16344 7.16344 0 16 0H319C327.837 0 335 7.16344 335 16V40C335 48.8366 327.837 56 319 56H16C7.16345 56 0 48.8366 0 40V16Z" fill="#0066FF"/>
<path d="M116.711 22.832V34H114.471V22.832H116.711ZM123.836 25.008C124.892 25.008 125.746 25.344 126.396 26.016C127.047 26.6773 127.372 27.6053 127.372 28.8V34H125.132V29.104C125.132 28.4 124.956 27.8613 124.604 27.488C124.252 27.104 123.772 26.912 123.164 26.912C122.546 26.912 122.055 27.104 121.692 27.488C121.34 27.8613 121.164 28.4 121.164 29.104V34H118.924V25.136H121.164V26.24C121.463 25.856 121.842 25.5573 122.3 25.344C122.77 25.12 123.282 25.008 123.836 25.008ZM130.638 24.08C130.244 24.08 129.913 23.9573 129.646 23.712C129.39 23.456 129.262 23.1413 129.262 22.768C129.262 22.3947 129.39 22.0853 129.646 21.84C129.913 21.584 130.244 21.456 130.638 21.456C131.033 21.456 131.358 21.584 131.614 21.84C131.881 22.0853 132.014 22.3947 132.014 22.768C132.014 23.1413 131.881 23.456 131.614 23.712C131.358 23.9573 131.033 24.08 130.638 24.08ZM131.742 25.136V34H129.502V25.136H131.742ZM133.38 29.568C133.38 28.6507 133.566 27.8507 133.94 27.168C134.313 26.4747 134.83 25.9413 135.492 25.568C136.153 25.184 136.91 24.992 137.764 24.992C138.862 24.992 139.769 25.2693 140.484 25.824C141.209 26.368 141.694 27.136 141.94 28.128H139.524C139.396 27.744 139.177 27.4453 138.868 27.232C138.569 27.008 138.196 26.896 137.748 26.896C137.108 26.896 136.601 27.1307 136.228 27.6C135.854 28.0587 135.668 28.7147 135.668 29.568C135.668 30.4107 135.854 31.0667 136.228 31.536C136.601 31.9947 137.108 32.224 137.748 32.224C138.654 32.224 139.246 31.8187 139.524 31.008H141.94C141.694 31.968 141.209 32.7307 140.484 33.296C139.758 33.8613 138.852 34.144 137.764 34.144C136.91 34.144 136.153 33.9573 135.492 33.584C134.83 33.2 134.313 32.6667 133.94 31.984C133.566 31.2907 133.38 30.4853 133.38 29.568ZM144.717 24.08C144.322 24.08 143.991 23.9573 143.725 23.712C143.469 23.456 143.341 23.1413 143.341 22.768C143.341 22.3947 143.469 22.0853 143.725 21.84C143.991 21.584 144.322 21.456 144.717 21.456C145.111 21.456 145.437 21.584 145.693 21.84C145.959 22.0853 146.093 22.3947 146.093 22.768C146.093 23.1413 145.959 23.456 145.693 23.712C145.437 23.9573 145.111 24.08 144.717 24.08ZM145.821 25.136V34H143.581V25.136H145.821ZM147.458 29.536C147.458 28.64 147.634 27.8453 147.986 27.152C148.348 26.4587 148.834 25.9253 149.442 25.552C150.06 25.1787 150.748 24.992 151.506 24.992C152.167 24.992 152.743 25.1253 153.234 25.392C153.735 25.6587 154.135 25.9947 154.434 26.4V25.136H156.69V34H154.434V32.704C154.146 33.12 153.746 33.4667 153.234 33.744C152.732 34.0107 152.151 34.144 151.49 34.144C150.743 34.144 150.06 33.952 149.442 33.568C148.834 33.184 148.348 32.6453 147.986 31.952C147.634 31.248 147.458 30.4427 147.458 29.536ZM154.434 29.568C154.434 29.024 154.327 28.56 154.114 28.176C153.9 27.7813 153.612 27.4827 153.25 27.28C152.887 27.0667 152.498 26.96 152.082 26.96C151.666 26.96 151.282 27.0613 150.93 27.264C150.578 27.4667 150.29 27.7653 150.066 28.16C149.852 28.544 149.746 29.0027 149.746 29.536C149.746 30.0693 149.852 30.5387 150.066 30.944C150.29 31.3387 150.578 31.6427 150.93 31.856C151.292 32.0693 151.676 32.176 152.082 32.176C152.498 32.176 152.887 32.0747 153.25 31.872C153.612 31.6587 153.9 31.36 154.114 30.976C154.327 30.5813 154.434 30.112 154.434 29.568ZM161.117 26.512C161.405 26.0427 161.779 25.6747 162.237 25.408C162.707 25.1413 163.24 25.008 163.837 25.008V27.36H163.245C162.541 27.36 162.008 27.5253 161.645 27.856C161.293 28.1867 161.117 28.7627 161.117 29.584V34H158.877V25.136H161.117V26.512ZM173.015 34.112C172.236 34.112 171.532 33.9787 170.903 33.712C170.284 33.4453 169.793 33.0613 169.431 32.56C169.068 32.0587 168.881 31.4667 168.871 30.784H171.271C171.303 31.2427 171.463 31.6053 171.751 31.872C172.049 32.1387 172.455 32.272 172.967 32.272C173.489 32.272 173.9 32.1493 174.199 31.904C174.497 31.648 174.647 31.3173 174.647 30.912C174.647 30.5813 174.545 30.3093 174.343 30.096C174.14 29.8827 173.884 29.7173 173.575 29.6C173.276 29.472 172.86 29.3333 172.327 29.184C171.601 28.9707 171.009 28.7627 170.551 28.56C170.103 28.3467 169.713 28.032 169.383 27.616C169.063 27.1893 168.903 26.624 168.903 25.92C168.903 25.2587 169.068 24.6827 169.399 24.192C169.729 23.7013 170.193 23.328 170.791 23.072C171.388 22.8053 172.071 22.672 172.839 22.672C173.991 22.672 174.924 22.9547 175.639 23.52C176.364 24.0747 176.764 24.8533 176.839 25.856H174.375C174.353 25.472 174.188 25.1573 173.879 24.912C173.58 24.656 173.18 24.528 172.679 24.528C172.241 24.528 171.889 24.64 171.623 24.864C171.367 25.088 171.239 25.4133 171.239 25.84C171.239 26.1387 171.335 26.3893 171.527 26.592C171.729 26.784 171.975 26.944 172.263 27.072C172.561 27.1893 172.977 27.328 173.511 27.488C174.236 27.7013 174.828 27.9147 175.287 28.128C175.745 28.3413 176.14 28.6613 176.471 29.088C176.801 29.5147 176.967 30.0747 176.967 30.768C176.967 31.3653 176.812 31.92 176.503 32.432C176.193 32.944 175.74 33.3547 175.143 33.664C174.545 33.9627 173.836 34.112 173.015 34.112ZM187.149 29.376C187.149 29.696 187.127 29.984 187.085 30.24H180.605C180.658 30.88 180.882 31.3813 181.277 31.744C181.671 32.1067 182.157 32.288 182.733 32.288C183.565 32.288 184.157 31.9307 184.509 31.216H186.925C186.669 32.0693 186.178 32.7733 185.453 33.328C184.727 33.872 183.837 34.144 182.781 34.144C181.927 34.144 181.159 33.9573 180.477 33.584C179.805 33.2 179.277 32.6613 178.893 31.968C178.519 31.2747 178.333 30.4747 178.333 29.568C178.333 28.6507 178.519 27.8453 178.893 27.152C179.266 26.4587 179.789 25.9253 180.461 25.552C181.133 25.1787 181.906 24.992 182.781 24.992C183.623 24.992 184.375 25.1733 185.037 25.536C185.709 25.8987 186.226 26.416 186.589 27.088C186.962 27.7493 187.149 28.512 187.149 29.376ZM184.829 28.736C184.818 28.16 184.61 27.7013 184.205 27.36C183.799 27.008 183.303 26.832 182.717 26.832C182.162 26.832 181.693 27.0027 181.309 27.344C180.935 27.6747 180.706 28.1387 180.621 28.736H184.829ZM192.176 34.144C191.45 34.144 190.8 34.016 190.224 33.76C189.648 33.4933 189.189 33.136 188.848 32.688C188.517 32.24 188.336 31.744 188.304 31.2H190.56C190.602 31.5413 190.768 31.824 191.056 32.048C191.354 32.272 191.722 32.384 192.16 32.384C192.586 32.384 192.917 32.2987 193.152 32.128C193.397 31.9573 193.52 31.7387 193.52 31.472C193.52 31.184 193.37 30.9707 193.072 30.832C192.784 30.6827 192.32 30.5227 191.68 30.352C191.018 30.192 190.474 30.0267 190.048 29.856C189.632 29.6853 189.269 29.424 188.96 29.072C188.661 28.72 188.512 28.2453 188.512 27.648C188.512 27.1573 188.65 26.7093 188.928 26.304C189.216 25.8987 189.621 25.5787 190.144 25.344C190.677 25.1093 191.301 24.992 192.016 24.992C193.072 24.992 193.914 25.2587 194.544 25.792C195.173 26.3147 195.52 27.024 195.584 27.92H193.44C193.408 27.568 193.258 27.2907 192.992 27.088C192.736 26.8747 192.389 26.768 191.952 26.768C191.546 26.768 191.232 26.8427 191.008 26.992C190.794 27.1413 190.688 27.3493 190.688 27.616C190.688 27.9147 190.837 28.144 191.136 28.304C191.434 28.4533 191.898 28.608 192.528 28.768C193.168 28.928 193.696 29.0933 194.112 29.264C194.528 29.4347 194.885 29.7013 195.184 30.064C195.493 30.416 195.653 30.8853 195.664 31.472C195.664 31.984 195.52 32.4427 195.232 32.848C194.954 33.2533 194.549 33.5733 194.016 33.808C193.493 34.032 192.88 34.144 192.176 34.144ZM198.638 24.08C198.244 24.08 197.913 23.9573 197.646 23.712C197.39 23.456 197.262 23.1413 197.262 22.768C197.262 22.3947 197.39 22.0853 197.646 21.84C197.913 21.584 198.244 21.456 198.638 21.456C199.033 21.456 199.358 21.584 199.614 21.84C199.881 22.0853 200.014 22.3947 200.014 22.768C200.014 23.1413 199.881 23.456 199.614 23.712C199.358 23.9573 199.033 24.08 198.638 24.08ZM199.742 25.136V34H197.502V25.136H199.742ZM205.892 34.144C205.038 34.144 204.27 33.9573 203.588 33.584C202.905 33.2 202.366 32.6613 201.972 31.968C201.588 31.2747 201.396 30.4747 201.396 29.568C201.396 28.6613 201.593 27.8613 201.988 27.168C202.393 26.4747 202.942 25.9413 203.636 25.568C204.329 25.184 205.102 24.992 205.956 24.992C206.809 24.992 207.582 25.184 208.276 25.568C208.969 25.9413 209.513 26.4747 209.908 27.168C210.313 27.8613 210.516 28.6613 210.516 29.568C210.516 30.4747 210.308 31.2747 209.892 31.968C209.486 32.6613 208.932 33.2 208.228 33.584C207.534 33.9573 206.756 34.144 205.892 34.144ZM205.892 32.192C206.297 32.192 206.676 32.096 207.028 31.904C207.39 31.7013 207.678 31.4027 207.892 31.008C208.105 30.6133 208.212 30.1333 208.212 29.568C208.212 28.7253 207.988 28.08 207.54 27.632C207.102 27.1733 206.564 26.944 205.924 26.944C205.284 26.944 204.745 27.1733 204.308 27.632C203.881 28.08 203.668 28.7253 203.668 29.568C203.668 30.4107 203.876 31.0613 204.292 31.52C204.718 31.968 205.252 32.192 205.892 32.192ZM217.071 25.008C218.127 25.008 218.98 25.344 219.631 26.016C220.281 26.6773 220.607 27.6053 220.607 28.8V34H218.367V29.104C218.367 28.4 218.191 27.8613 217.839 27.488C217.487 27.104 217.007 26.912 216.399 26.912C215.78 26.912 215.289 27.104 214.927 27.488C214.575 27.8613 214.399 28.4 214.399 29.104V34H212.159V25.136H214.399V26.24C214.697 25.856 215.076 25.5573 215.535 25.344C216.004 25.12 216.516 25.008 217.071 25.008Z" fill="white"/>
</svg>
