<svg width="22" height="22" viewBox="0 0 22 22" fill="none" xmlns="http://www.w3.org/2000/svg">
<g clip-path="url(#clip0_46_526)">
<path d="M9.33501 12.6685C8.41429 11.7478 8.41429 10.254 9.33501 9.33141C10.2557 8.41069 11.7496 8.41069 12.6721 9.33141C13.5929 10.2521 13.5929 11.746 12.6721 12.6685C11.7496 13.5911 10.2566 13.5911 9.33501 12.6685Z" stroke="#A2A2A7" stroke-width="1.3" stroke-linecap="round" stroke-linejoin="round"/>
<path d="M18.3395 11.0023C18.3395 11.5204 18.2157 12.033 17.9764 12.5053C16.7411 14.9392 14.012 16.5046 11.0031 16.5046C7.9943 16.5046 5.26516 14.9392 4.0299 12.5053C3.79055 12.033 3.66675 11.5204 3.66675 11.0023C3.66675 10.4841 3.79055 9.9715 4.0299 9.49922C5.26516 7.06537 7.9943 5.49997 11.0031 5.49997C14.012 5.49997 16.7411 7.06537 17.9764 9.49922C18.2157 9.9715 18.3395 10.4841 18.3395 11.0023Z" stroke="#A2A2A7" stroke-width="1.3" stroke-linecap="round" stroke-linejoin="round"/>
</g>
<defs>
<clipPath id="clip0_46_526">
<rect width="22" height="22" fill="white"/>
</clipPath>
</defs>
</svg>
