<svg width="23" height="27" viewBox="0 0 23 27" fill="none" xmlns="http://www.w3.org/2000/svg">
<path d="M13.5183 24.7542C13.3132 25.1331 13.0188 25.4476 12.6646 25.6663C12.3104 25.8849 11.9088 26 11.5 26C11.0912 26 10.6896 25.8849 10.3354 25.6663C9.98118 25.4476 9.68678 25.1331 9.48167 24.7542M18.5 8.50133C18.5 6.51185 17.7625 4.60386 16.4497 3.19709C15.137 1.79032 13.3565 1 11.5 1C9.64348 1 7.86301 1.79032 6.55025 3.19709C5.2375 4.60386 4.5 6.51185 4.5 8.50133C4.5 17.2529 1 19.7533 1 19.7533H22C22 19.7533 18.5 17.2529 18.5 8.50133Z" stroke="#F3F3F3" stroke-width="2" stroke-linecap="round" stroke-linejoin="round"/>
</svg>
