<svg width="33" height="35" viewBox="0 0 33 35" fill="none" xmlns="http://www.w3.org/2000/svg">
<path d="M20.3542 14.25C19.0746 14.25 18.0417 13.1612 18.0417 11.8125V3.6875C18.0417 2.33875 19.0746 1.25 20.3542 1.25C21.6338 1.25 22.6667 2.33875 22.6667 3.6875V11.8125C22.6667 13.1612 21.6338 14.25 20.3542 14.25Z" stroke="#F5F5F5" stroke-width="2" stroke-linecap="round" stroke-linejoin="round"/>
<path d="M29.6042 14.25H27.2917V11.8125C27.2917 10.4637 28.3246 9.375 29.6042 9.375C30.8838 9.375 31.9167 10.4637 31.9167 11.8125C31.9167 13.1612 30.8838 14.25 29.6042 14.25Z" stroke="#F5F5F5" stroke-width="2" stroke-linecap="round" stroke-linejoin="round"/>
<path d="M12.6458 20.75C13.9254 20.75 14.9583 21.8388 14.9583 23.1875V31.3125C14.9583 32.6613 13.9254 33.75 12.6458 33.75C11.3663 33.75 10.3333 32.6613 10.3333 31.3125V23.1875C10.3333 21.8388 11.3663 20.75 12.6458 20.75Z" stroke="#F5F5F5" stroke-width="2" stroke-linecap="round" stroke-linejoin="round"/>
<path d="M3.39584 20.75H5.70834V23.1875C5.70834 24.5363 4.67542 25.625 3.39584 25.625C2.11625 25.625 1.08334 24.5363 1.08334 23.1875C1.08334 21.8388 2.11625 20.75 3.39584 20.75Z" stroke="#F5F5F5" stroke-width="2" stroke-linecap="round" stroke-linejoin="round"/>
<path d="M19.5833 21.5625C19.5833 20.2137 20.6163 19.125 21.8958 19.125H29.6042C30.8838 19.125 31.9167 20.2137 31.9167 21.5625C31.9167 22.9112 30.8838 24 29.6042 24H21.8958C20.6163 24 19.5833 22.9112 19.5833 21.5625Z" stroke="#F5F5F5" stroke-width="2" stroke-linecap="round" stroke-linejoin="round"/>
<path d="M21.8958 28.875H19.5833V31.3125C19.5833 32.6612 20.6163 33.75 21.8958 33.75C23.1754 33.75 24.2083 32.6612 24.2083 31.3125C24.2083 29.9637 23.1754 28.875 21.8958 28.875Z" stroke="#F5F5F5" stroke-width="2" stroke-linecap="round" stroke-linejoin="round"/>
<path d="M13.4167 13.4375C13.4167 12.0888 12.3838 11 11.1042 11H3.39584C2.11625 11 1.08334 12.0888 1.08334 13.4375C1.08334 14.7863 2.11625 15.875 3.39584 15.875H11.1042C12.3838 15.875 13.4167 14.7863 13.4167 13.4375Z" stroke="#F5F5F5" stroke-width="2" stroke-linecap="round" stroke-linejoin="round"/>
<path d="M11.1042 6.125H13.4167V3.6875C13.4167 2.33875 12.3838 1.25 11.1042 1.25C9.82459 1.25 8.79167 2.33875 8.79167 3.6875C8.79167 5.03625 9.82459 6.125 11.1042 6.125Z" stroke="#F5F5F5" stroke-width="2" stroke-linecap="round" stroke-linejoin="round"/>
</svg>
