<svg width="52" height="52" viewBox="0 0 52 52" fill="none" xmlns="http://www.w3.org/2000/svg">
<g clip-path="url(#clip0_72_143)">
<path d="M26 52C40.3594 52 52 40.3594 52 26C52 11.6406 40.3594 0 26 0C11.6406 0 0 11.6406 0 26C0 40.3594 11.6406 52 26 52Z" fill="url(#paint0_radial_72_143)"/>
<path opacity="0.2" d="M25.9999 3.06543C34.0176 3.06543 41.3495 8.85622 41.3495 15.4863C41.3495 22.1162 34.0176 30.9235 25.9999 30.9235C17.9821 30.9235 10.6504 22.1162 10.6504 15.4863C10.6504 8.85622 17.9821 3.06543 25.9999 3.06543Z" fill="url(#paint1_linear_72_143)"/>
<path opacity="0.2" d="M25.9999 3.22144C33.9278 3.22144 41.1869 8.94732 41.1869 15.5032C41.1869 22.0589 33.9278 30.7675 25.9999 30.7675C18.0719 30.7675 10.8129 22.0588 10.8129 15.5032C10.8129 8.94743 18.0719 3.22144 25.9999 3.22144Z" fill="url(#paint2_linear_72_143)"/>
<path opacity="0.2" d="M25.9999 3.4043C33.8226 3.4043 40.9962 9.05415 40.9962 15.5229C40.9962 21.9915 33.8226 30.5844 25.9999 30.5844C18.1772 30.5844 11.0036 21.9915 11.0036 15.5229C11.0036 9.05415 18.1772 3.4043 25.9999 3.4043Z" fill="url(#paint3_linear_72_143)"/>
<path opacity="0.2" d="M25.9999 3.6123C33.7337 3.6123 40.8356 9.17562 40.8356 15.5454C40.8356 21.9151 33.7338 30.3765 25.9999 30.3765C18.2658 30.3765 11.1642 21.9151 11.1642 15.5454C11.1643 9.17572 18.2659 3.6123 25.9999 3.6123Z" fill="url(#paint4_linear_72_143)"/>
<path opacity="0.53" d="M25.9999 3.79346C33.5985 3.79346 40.5907 9.28157 40.5907 15.5651C40.5907 21.8486 33.5984 30.1954 25.9999 30.1954C18.4012 30.1954 11.4092 21.8485 11.4092 15.5651C11.4092 9.28157 18.4013 3.79346 25.9999 3.79346Z" fill="url(#paint5_linear_72_143)"/>
<path opacity="0.5" d="M25.9999 49.8465C36.4198 49.8465 44.8668 41.9587 44.8668 32.2285C44.8668 22.4984 36.4198 14.6106 25.9999 14.6106C15.58 14.6106 7.13297 22.4984 7.13297 32.2285C7.13297 41.9587 15.58 49.8465 25.9999 49.8465Z" fill="url(#paint6_radial_72_143)"/>
<path opacity="0.5" d="M25.9999 49.8465C36.4198 49.8465 44.8668 41.9587 44.8668 32.2285C44.8668 22.4984 36.4198 14.6106 25.9999 14.6106C15.58 14.6106 7.13297 22.4984 7.13297 32.2285C7.13297 41.9587 15.58 49.8465 25.9999 49.8465Z" fill="url(#paint7_radial_72_143)"/>
<path d="M36.2357 15.304C36.8517 15.3104 37.4679 15.3051 38.0841 15.3057C38.0862 17.1942 38.0852 19.0818 38.0841 20.9694C37.468 20.9699 36.8513 20.9708 36.2353 20.9699C36.2357 19.0817 36.234 17.1928 36.2357 15.304ZM40.3256 21.696C42.0184 19.9487 43.6924 18.1802 45.3838 16.4306C45.8175 16.8887 46.2649 17.3344 46.6899 17.8017C45.016 19.5648 43.3259 21.3104 41.651 23.0718C41.2017 22.6209 40.7673 22.1546 40.3256 21.696ZM7.90433 20.6583C8.37072 20.5466 8.84834 20.484 9.32711 20.5033C10.9152 20.4652 12.4578 21.3017 13.4417 22.5835C13.9098 23.1902 14.2518 23.9033 14.4412 24.6561C13.7135 24.6589 12.986 24.6567 12.2584 24.6567C11.9377 23.991 11.4467 23.3985 10.806 23.0532C10.4527 22.8526 10.0642 22.7191 9.66515 22.6676C9.29248 22.66 8.91127 22.6266 8.54629 22.7249C7.93241 22.8636 7.3618 23.1993 6.92734 23.6726C6.36047 24.2283 5.98051 25.0104 5.94691 25.8271C5.87411 26.6051 6.01639 27.4206 6.44139 28.0752C6.85005 28.7022 7.42805 29.2247 8.11245 29.4939C9.26002 29.9361 10.6491 29.6694 11.528 28.7663C11.8239 28.4538 12.0801 28.0953 12.2663 27.7004C12.9904 27.6968 13.7148 27.6963 14.4396 27.7004C14.2602 28.499 13.8694 29.2389 13.3757 29.873C13.0369 30.2422 12.7046 30.6289 12.2875 30.9039C10.4157 32.2487 7.69765 32.1727 5.93787 30.6522C5.39086 30.1668 4.89067 29.6082 4.54701 28.9448C3.91357 27.7725 3.75558 26.3633 3.97973 25.0499C4.16872 23.9368 4.72924 22.9113 5.50164 22.1269C6.15317 21.4198 6.98683 20.8862 7.90433 20.6583ZM15.5499 20.5025H17.6239C17.6234 24.3045 17.6256 28.1061 17.6228 31.908C16.9317 31.9098 16.2409 31.9067 15.5498 31.9073L15.5499 20.5025ZM21.8171 22.7728C22.2102 22.6898 22.6125 22.7367 23.01 22.726C23.4708 22.7676 23.9328 22.8365 24.3711 22.9986C24.8106 23.1577 25.263 23.3571 25.5707 23.7369C25.9325 24.1856 26.0605 24.7822 26.0887 25.3544C26.0876 27.5386 26.0906 29.7235 26.0876 31.9079C25.3862 31.9046 24.6846 31.9232 23.9838 31.8985C23.9771 31.6015 23.9893 31.3037 23.9792 31.0071C23.3687 31.5563 22.5615 31.8092 21.77 31.8728C21.2706 31.9623 20.7537 31.8817 20.2772 31.7149C19.664 31.502 19.1589 30.9697 18.9779 30.3203C18.7817 29.6277 18.8227 28.8696 19.0519 28.1915C19.3008 27.5006 19.9006 27.0094 20.5599 26.7852C21.4045 26.4734 22.3077 26.4254 23.1811 26.2452C23.4832 26.2452 23.7819 26.0505 23.8941 25.7545C23.9748 25.4311 23.9048 25.0257 23.6317 24.8204C23.3312 24.614 22.9641 24.5712 22.6132 24.5606C22.301 24.5705 21.9709 24.5741 21.6944 24.7466C21.3351 24.959 21.1737 25.3814 21.103 25.7851C20.4085 25.7699 19.7133 25.7861 19.0188 25.7734C19.1052 25.061 19.2481 24.3004 19.7381 23.76C20.2514 23.1331 21.0469 22.8349 21.8171 22.7728ZM23.3458 27.7036C22.9355 27.8024 22.5314 27.93 22.1142 27.9961C21.7823 28.0645 21.433 28.1762 21.197 28.4437C20.8692 28.8479 20.845 29.4715 21.0995 29.9214C21.2099 30.1277 21.4292 30.229 21.6331 30.3028C22.2912 30.4355 23.0138 30.2215 23.4942 29.7288C23.9869 29.086 23.9001 28.2154 23.8984 27.4456C23.7048 27.51 23.5482 27.6652 23.3458 27.7036ZM31.0331 23.0327C31.4607 22.9233 31.8811 22.7396 32.3302 22.7835C32.3352 23.5217 32.3735 24.261 32.3587 24.9999C31.9766 24.945 31.5773 24.9005 31.2024 25.0198C30.3934 25.2533 29.7169 25.9974 29.6221 26.8808C29.6164 27.0755 29.5661 27.2655 29.5643 27.4609C29.5632 28.9438 29.5661 30.4262 29.5643 31.9092C28.8749 31.9073 28.1847 31.9144 27.4952 31.9051C27.4874 28.9853 27.4934 26.0647 27.499 23.1444C28.1673 23.1379 28.835 23.1642 29.5026 23.1901C29.5037 23.5505 29.4941 23.9113 29.5072 24.2723C29.8979 23.7287 30.4108 23.2584 31.0331 23.0327ZM36.1986 22.8063C36.5064 22.774 36.8187 22.7436 37.1286 22.77C38.9887 22.7945 40.6866 24.2909 41.1301 26.1577C41.5128 27.6833 41.1408 29.4434 40.0335 30.5502C39.3929 31.2715 38.5138 31.7611 37.5815 31.908C37.132 31.9119 36.6824 31.9098 36.2335 31.9092C34.8915 31.712 33.7254 30.7562 33.0633 29.5458C32.3754 28.2173 32.3726 26.5332 33.0471 25.1982C33.6874 23.9698 34.8539 23.0069 36.1986 22.8063ZM36.3657 24.9688C35.7463 25.1151 35.2189 25.5684 34.9033 26.1359C34.4318 26.9624 34.5068 28.0891 35.095 28.8333C35.6938 29.7325 36.9236 30.0365 37.8637 29.5751C38.4101 29.3188 38.8273 28.8152 39.0594 28.2454C39.3166 27.591 39.27 26.8227 38.9614 26.1964C38.6368 25.5628 38.0408 25.065 37.3536 24.951C37.025 24.9232 36.6914 24.9133 36.3657 24.9688ZM42.5757 25.2983C44.4224 25.2983 46.2694 25.297 48.1166 25.2995C48.1153 25.9394 48.1176 26.5801 48.1159 27.2206C46.2694 27.2183 44.4235 27.2246 42.577 27.2218C42.574 26.5806 42.5791 25.9393 42.5757 25.2983Z" fill="url(#paint8_radial_72_143)"/>
</g>
<defs>
<radialGradient id="paint0_radial_72_143" cx="0" cy="0" r="1" gradientUnits="userSpaceOnUse" gradientTransform="translate(26 26) scale(26)">
<stop stop-color="#FF0A1A"/>
<stop offset="0.237" stop-color="#FC0A19"/>
<stop offset="0.436" stop-color="#F10916"/>
<stop offset="0.621" stop-color="#E00711"/>
<stop offset="0.678" stop-color="#D9060F"/>
<stop offset="0.951" stop-color="#A10000"/>
<stop offset="1" stop-color="#800000"/>
</radialGradient>
<linearGradient id="paint1_linear_72_143" x1="26" y1="3.6893" x2="26" y2="30.7327" gradientUnits="userSpaceOnUse">
<stop stop-color="#F2F2F2"/>
<stop offset="0.473" stop-color="#F2F2F2" stop-opacity="0.282"/>
<stop offset="0.649" stop-color="#F2F2F2" stop-opacity="0"/>
<stop offset="0.785" stop-color="#F2F2F2" stop-opacity="0.086"/>
</linearGradient>
<linearGradient id="paint2_linear_72_143" x1="25.9999" y1="3.83833" x2="25.9999" y2="30.5789" gradientUnits="userSpaceOnUse">
<stop stop-color="#F2F2F2"/>
<stop offset="0.473" stop-color="#F2F2F2" stop-opacity="0.282"/>
<stop offset="0.649" stop-color="#F2F2F2" stop-opacity="0"/>
<stop offset="0.785" stop-color="#F2F2F2" stop-opacity="0.086"/>
</linearGradient>
<linearGradient id="paint3_linear_72_143" x1="25.9999" y1="4.01298" x2="25.9999" y2="30.3983" gradientUnits="userSpaceOnUse">
<stop stop-color="#F2F2F2"/>
<stop offset="0.473" stop-color="#F2F2F2" stop-opacity="0.282"/>
<stop offset="0.649" stop-color="#F2F2F2" stop-opacity="0"/>
<stop offset="0.785" stop-color="#F2F2F2" stop-opacity="0.086"/>
</linearGradient>
<linearGradient id="paint4_linear_72_143" x1="25.9999" y1="4.21173" x2="25.9999" y2="30.1932" gradientUnits="userSpaceOnUse">
<stop stop-color="#F2F2F2"/>
<stop offset="0.473" stop-color="#F2F2F2" stop-opacity="0.282"/>
<stop offset="0.649" stop-color="#F2F2F2" stop-opacity="0"/>
<stop offset="0.785" stop-color="#F2F2F2" stop-opacity="0.086"/>
</linearGradient>
<linearGradient id="paint5_linear_72_143" x1="26" y1="4.38477" x2="26" y2="30.0146" gradientUnits="userSpaceOnUse">
<stop stop-color="#F2F2F2"/>
<stop offset="0.473" stop-color="#F2F2F2" stop-opacity="0.282"/>
<stop offset="0.649" stop-color="#F2F2F2" stop-opacity="0"/>
<stop offset="0.785" stop-color="#F2F2F2" stop-opacity="0.086"/>
</linearGradient>
<radialGradient id="paint6_radial_72_143" cx="0" cy="0" r="1" gradientUnits="userSpaceOnUse" gradientTransform="translate(25.8014 42.8054) scale(6.18032 3.96097)">
<stop stop-color="#F2F2F2" stop-opacity="0.83"/>
<stop offset="0.322" stop-color="#F2F2F2" stop-opacity="0.38"/>
<stop offset="1" stop-color="#F2F2F2" stop-opacity="0"/>
</radialGradient>
<radialGradient id="paint7_radial_72_143" cx="0" cy="0" r="1" gradientUnits="userSpaceOnUse" gradientTransform="translate(25.9574 39.6873) scale(14.5123 10.2878)">
<stop stop-color="#F2F2F2"/>
<stop offset="0.244" stop-color="#F2F2F2" stop-opacity="0.917"/>
<stop offset="0.405" stop-color="#F2F2F2" stop-opacity="0.781"/>
<stop offset="0.639" stop-color="#F2F2F2" stop-opacity="0.499"/>
<stop offset="0.854" stop-color="#F2F2F2" stop-opacity="0.25"/>
<stop offset="1" stop-color="#F2F2F2" stop-opacity="0"/>
</radialGradient>
<radialGradient id="paint8_radial_72_143" cx="0" cy="0" r="1" gradientUnits="userSpaceOnUse" gradientTransform="translate(25.948 31.9807) scale(22.9877)">
<stop stop-color="white"/>
<stop offset="0.261" stop-color="#F5F5F5"/>
<stop offset="0.761" stop-color="#E5E5E5"/>
</radialGradient>
<clipPath id="clip0_72_143">
<rect width="52" height="52" fill="white"/>
</clipPath>
</defs>
</svg>
