<svg width="52" height="52" viewBox="0 0 52 52" fill="none" xmlns="http://www.w3.org/2000/svg">
<g clip-path="url(#clip0_72_153)">
<path d="M50.7925 18.1857C55.1052 31.8775 47.5054 46.4746 33.8136 50.7925C20.1218 55.1052 5.52464 47.5053 1.20678 33.8135C-3.10644 20.1218 4.49392 5.52462 18.1857 1.20676C31.8775 -3.10645 46.4746 4.4939 50.7925 18.1857Z" fill="#3A1F4F"/>
<path d="M46.7954 25.7354C46.9904 26.0929 46.8794 26.3669 46.4982 26.4876L44.3486 27.1608C44.024 27.2676 43.7404 27.1794 43.6057 26.8822L40.2071 19.6812C40.1148 19.5094 39.9657 19.5558 39.9889 19.7462L41.1496 27.6534C41.1965 27.9779 41.0289 28.2101 40.7039 28.3127L39.1486 28.7997C38.8282 28.9023 38.5585 28.8095 38.4104 28.5212L34.8261 21.3758C34.7337 21.204 34.5893 21.2504 34.6079 21.4408L35.9538 29.2919C36.0146 29.6118 35.8285 29.849 35.5039 29.9512L33.3585 30.6295C32.9778 30.7455 32.7275 30.5872 32.6811 30.1833L31.2557 17.9169C31.2139 17.5919 31.3811 17.3597 31.7061 17.2576L34.2499 16.4544C34.5754 16.3522 34.8256 16.4544 34.9932 16.7376L37.3838 20.8651C37.4771 21.0322 37.6206 20.9904 37.6025 20.7954L37.1935 16.0458C37.1707 15.7162 37.3193 15.4887 37.6396 15.3865L40.1886 14.5833C40.5131 14.4812 40.7782 14.5787 40.9314 14.8665L46.7954 25.7354Z" fill="white"/>
<path d="M5.20464 26.2647C5.00964 25.9072 5.12107 25.6333 5.50179 25.5126L7.65143 24.8393C7.97643 24.7372 8.25964 24.8254 8.39429 25.1179L11.7929 32.3236C11.8857 32.4908 12.0296 32.4443 12.0111 32.2545L10.8504 24.3472C10.8086 24.0222 10.9711 23.7901 11.2961 23.6879L12.8468 23.2004C13.1718 23.0983 13.4411 23.1911 13.5943 23.4836L17.1739 30.6295C17.2668 30.7961 17.4107 30.7502 17.3921 30.5598L16.0457 22.7087C15.9854 22.3884 16.1711 22.1516 16.4961 22.0495L18.6457 21.3762C19.0218 21.2555 19.2725 21.4134 19.3189 21.8173L20.7443 34.0884C20.7861 34.4083 20.6189 34.6404 20.2939 34.743L17.7496 35.5462C17.4246 35.6479 17.1786 35.5462 17.0068 35.263L14.6157 31.1355C14.5229 30.9684 14.3789 31.0143 14.3975 31.2047L14.8061 35.959C14.8293 36.2886 14.6807 36.5115 14.3557 36.6132L11.8114 37.4164C11.4864 37.519 11.2218 37.4257 11.0686 37.1336L5.20464 26.2647Z" fill="white"/>
<path fill-rule="evenodd" clip-rule="evenodd" d="M21.1575 25.0483C21.0136 23.7808 20.8789 20.3126 25.1596 18.9615C29.4357 17.6151 30.076 20.9254 30.2204 22.1929L30.7636 26.9797C30.908 28.243 31.0421 31.7159 26.7619 33.0623C22.4858 34.4083 21.8493 31.0989 21.7054 29.8355L21.1575 25.0483ZM24.6907 27.8438C24.8579 29.3155 25.0529 30.1879 26.39 29.7654C27.7225 29.348 27.7132 28.4195 27.5461 26.9426L27.2304 24.1852C27.0632 22.7088 26.8682 21.8359 25.5357 22.2584C24.1986 22.6809 24.2125 23.6095 24.3796 25.0859L24.6907 27.8438Z" fill="white"/>
</g>
<defs>
<clipPath id="clip0_72_153">
<rect width="52" height="52" fill="white"/>
</clipPath>
</defs>
</svg>
