<svg width="124" height="23" viewBox="0 0 124 23" fill="none" xmlns="http://www.w3.org/2000/svg">
<path d="M7.512 22.196C6.20533 22.196 5.02933 21.972 3.984 21.524C2.93867 21.0573 2.11733 20.404 1.52 19.564C0.922667 18.724 0.624 17.744 0.624 16.624H4.04C4.11467 17.464 4.44133 18.1547 5.02 18.696C5.61733 19.2373 6.448 19.508 7.512 19.508C8.61333 19.508 9.472 19.2467 10.088 18.724C10.704 18.1827 11.012 17.492 11.012 16.652C11.012 15.9987 10.816 15.4667 10.424 15.056C10.0507 14.6453 9.57467 14.328 8.996 14.104C8.436 13.88 7.652 13.6373 6.644 13.376C5.37467 13.04 4.33867 12.704 3.536 12.368C2.752 12.0133 2.08 11.472 1.52 10.744C0.96 10.016 0.68 9.04533 0.68 7.832C0.68 6.712 0.96 5.732 1.52 4.892C2.08 4.052 2.864 3.408 3.872 2.96C4.88 2.512 6.04667 2.288 7.372 2.288C9.25733 2.288 10.7973 2.764 11.992 3.716C13.2053 4.64933 13.8773 5.93733 14.008 7.58H10.48C10.424 6.87067 10.088 6.264 9.472 5.76C8.856 5.256 8.044 5.004 7.036 5.004C6.12133 5.004 5.37467 5.23733 4.796 5.704C4.21733 6.17067 3.928 6.84267 3.928 7.72C3.928 8.31733 4.10533 8.812 4.46 9.204C4.83333 9.57733 5.3 9.876 5.86 10.1C6.42 10.324 7.18533 10.5667 8.156 10.828C9.444 11.1827 10.4893 11.5373 11.292 11.892C12.1133 12.2467 12.804 12.7973 13.364 13.544C13.9427 14.272 14.232 15.252 14.232 16.484C14.232 17.4733 13.9613 18.4067 13.42 19.284C12.8973 20.1613 12.1227 20.8707 11.096 21.412C10.088 21.9347 8.89333 22.196 7.512 22.196ZM32.1384 13.908C32.1384 14.4867 32.1011 15.0093 32.0264 15.476H20.2384C20.3318 16.708 20.7891 17.6973 21.6104 18.444C22.4318 19.1907 23.4398 19.564 24.6344 19.564C26.3518 19.564 27.5651 18.8453 28.2744 17.408H31.7184C31.2518 18.8267 30.4024 19.9933 29.1704 20.908C27.9571 21.804 26.4451 22.252 24.6344 22.252C23.1598 22.252 21.8344 21.9253 20.6584 21.272C19.5011 20.6 18.5864 19.6667 17.9144 18.472C17.2611 17.2587 16.9344 15.8587 16.9344 14.272C16.9344 12.6853 17.2518 11.2947 17.8864 10.1C18.5398 8.88667 19.4451 7.95333 20.6024 7.3C21.7784 6.64667 23.1224 6.32 24.6344 6.32C26.0904 6.32 27.3878 6.63733 28.5264 7.272C29.6651 7.90667 30.5518 8.80267 31.1864 9.96C31.8211 11.0987 32.1384 12.4147 32.1384 13.908ZM28.8064 12.9C28.7878 11.724 28.3678 10.7813 27.5464 10.072C26.7251 9.36267 25.7078 9.008 24.4944 9.008C23.3931 9.008 22.4504 9.36267 21.6664 10.072C20.8824 10.7627 20.4158 11.7053 20.2664 12.9H28.8064ZM38.4717 8.812C38.9384 8.028 39.5544 7.42133 40.3197 6.992C41.1037 6.544 42.0277 6.32 43.0917 6.32V9.624H42.2797C41.029 9.624 40.077 9.94133 39.4237 10.576C38.789 11.2107 38.4717 12.312 38.4717 13.88V22H35.2797V6.572H38.4717V8.812ZM51.9898 19.144L56.3578 6.572H59.7458L53.8658 22H50.0578L44.2058 6.572H47.6218L51.9898 19.144ZM63.7826 4.528C63.2039 4.528 62.7186 4.332 62.3266 3.94C61.9346 3.548 61.7386 3.06267 61.7386 2.484C61.7386 1.90533 61.9346 1.42 62.3266 1.028C62.7186 0.635999 63.2039 0.439999 63.7826 0.439999C64.3426 0.439999 64.8186 0.635999 65.2106 1.028C65.6026 1.42 65.7986 1.90533 65.7986 2.484C65.7986 3.06267 65.6026 3.548 65.2106 3.94C64.8186 4.332 64.3426 4.528 63.7826 4.528ZM65.3506 6.572V22H62.1586V6.572H65.3506ZM68.4774 14.272C68.4774 12.6853 68.7947 11.2947 69.4294 10.1C70.0827 8.88667 70.9787 7.95333 72.1174 7.3C73.2561 6.64667 74.5627 6.32 76.0374 6.32C77.9041 6.32 79.4441 6.768 80.6574 7.664C81.8894 8.54133 82.7201 9.80133 83.1494 11.444H79.7054C79.4254 10.6787 78.9774 10.0813 78.3614 9.652C77.7454 9.22267 76.9707 9.008 76.0374 9.008C74.7307 9.008 73.6854 9.47467 72.9014 10.408C72.1361 11.3227 71.7534 12.6107 71.7534 14.272C71.7534 15.9333 72.1361 17.2307 72.9014 18.164C73.6854 19.0973 74.7307 19.564 76.0374 19.564C77.8854 19.564 79.1081 18.752 79.7054 17.128H83.1494C82.7014 18.696 81.8614 19.9467 80.6294 20.88C79.3974 21.7947 77.8667 22.252 76.0374 22.252C74.5627 22.252 73.2561 21.9253 72.1174 21.272C70.9787 20.6 70.0827 19.6667 69.4294 18.472C68.7947 17.2587 68.4774 15.8587 68.4774 14.272ZM87.9545 4.528C87.3758 4.528 86.8905 4.332 86.4985 3.94C86.1065 3.548 85.9105 3.06267 85.9105 2.484C85.9105 1.90533 86.1065 1.42 86.4985 1.028C86.8905 0.635999 87.3758 0.439999 87.9545 0.439999C88.5145 0.439999 88.9905 0.635999 89.3825 1.028C89.7745 1.42 89.9705 1.90533 89.9705 2.484C89.9705 3.06267 89.7745 3.548 89.3825 3.94C88.9905 4.332 88.5145 4.528 87.9545 4.528ZM89.5225 6.572V22H86.3305V6.572H89.5225ZM100.405 22.252C98.9493 22.252 97.6333 21.9253 96.4573 21.272C95.2813 20.6 94.3573 19.6667 93.6853 18.472C93.0133 17.2587 92.6773 15.8587 92.6773 14.272C92.6773 12.704 93.0226 11.3133 93.7133 10.1C94.4039 8.88667 95.3466 7.95333 96.5413 7.3C97.7359 6.64667 99.0706 6.32 100.545 6.32C102.02 6.32 103.355 6.64667 104.549 7.3C105.744 7.95333 106.687 8.88667 107.377 10.1C108.068 11.3133 108.413 12.704 108.413 14.272C108.413 15.84 108.059 17.2307 107.349 18.444C106.64 19.6573 105.669 20.6 104.437 21.272C103.224 21.9253 101.88 22.252 100.405 22.252ZM100.405 19.48C101.227 19.48 101.992 19.284 102.701 18.892C103.429 18.5 104.017 17.912 104.465 17.128C104.913 16.344 105.137 15.392 105.137 14.272C105.137 13.152 104.923 12.2093 104.493 11.444C104.064 10.66 103.495 10.072 102.785 9.68C102.076 9.288 101.311 9.092 100.489 9.092C99.6679 9.092 98.9026 9.288 98.1933 9.68C97.5026 10.072 96.9519 10.66 96.5413 11.444C96.1306 12.2093 95.9253 13.152 95.9253 14.272C95.9253 15.9333 96.3453 17.2213 97.1853 18.136C98.0439 19.032 99.1173 19.48 100.405 19.48ZM117.169 22.252C115.955 22.252 114.863 22.0373 113.893 21.608C112.941 21.16 112.185 20.5627 111.625 19.816C111.065 19.0507 110.766 18.2013 110.729 17.268H114.033C114.089 17.9213 114.397 18.472 114.957 18.92C115.535 19.3493 116.254 19.564 117.113 19.564C118.009 19.564 118.699 19.396 119.185 19.06C119.689 18.7053 119.941 18.2573 119.941 17.716C119.941 17.1373 119.661 16.708 119.101 16.428C118.559 16.148 117.691 15.84 116.497 15.504C115.339 15.1867 114.397 14.8787 113.669 14.58C112.941 14.2813 112.306 13.824 111.765 13.208C111.242 12.592 110.981 11.78 110.981 10.772C110.981 9.95067 111.223 9.204 111.709 8.532C112.194 7.84133 112.885 7.3 113.781 6.908C114.695 6.516 115.741 6.32 116.917 6.32C118.671 6.32 120.081 6.768 121.145 7.664C122.227 8.54133 122.806 9.74533 122.881 11.276H119.689C119.633 10.5853 119.353 10.0347 118.849 9.624C118.345 9.21333 117.663 9.008 116.805 9.008C115.965 9.008 115.321 9.16667 114.873 9.484C114.425 9.80133 114.201 10.2213 114.201 10.744C114.201 11.1547 114.35 11.5 114.649 11.78C114.947 12.06 115.311 12.284 115.741 12.452C116.17 12.6013 116.805 12.7973 117.645 13.04C118.765 13.3387 119.679 13.6467 120.389 13.964C121.117 14.2627 121.742 14.7107 122.265 15.308C122.787 15.9053 123.058 16.6987 123.077 17.688C123.077 18.5653 122.834 19.3493 122.349 20.04C121.863 20.7307 121.173 21.272 120.277 21.664C119.399 22.056 118.363 22.252 117.169 22.252Z" fill="white"/>
</svg>
