<svg width="59" height="43" viewBox="0 0 59 43" fill="none" xmlns="http://www.w3.org/2000/svg">
<g clip-path="url(#clip0_72_141)">
<path d="M11.7255 5.1351C9.0678 5.17767 4.16163 6.49575 1.921 15.6987C0.944157 19.7081 0.567844 23.8878 1.40357 28.8621C2.17344 33.4502 3.53914 37.4107 4.45954 39.5928C4.77627 40.3449 5.26861 41.1285 5.64806 41.6125C6.73937 42.9999 8.55821 42.9117 9.32181 42.5333C10.1544 42.1217 11.1109 41.1253 10.7643 38.8534C10.5966 37.756 10.1136 36.1494 9.84238 35.257C9.00822 32.5184 7.8981 29.2121 7.80088 26.8582C7.67074 23.7096 8.9063 23.2965 9.72635 23.1152C11.1062 22.8109 12.2618 24.3324 13.3609 26.2417C14.6717 28.52 16.9186 32.5546 18.7516 35.637C20.4058 38.4198 23.4586 41.3996 28.3617 41.1947C33.3603 40.9866 37.0451 39.0694 38.9439 33.0308C40.3645 28.5137 41.3319 25.1381 42.8904 21.682C44.6826 17.7073 47.0722 15.5788 49.0839 16.23C50.9529 16.8323 51.4186 18.6691 51.4406 21.3683C51.461 23.7553 51.1866 26.3884 50.9718 28.3213C50.8934 29.0229 50.7538 30.434 50.8118 31.2192C50.9247 32.7596 51.588 34.2984 53.3127 34.5444C55.1504 34.8061 56.6259 33.3303 57.2138 31.544C57.4459 30.8408 57.645 29.7624 57.7517 28.9993C58.291 25.1412 58.4322 22.5476 58.1891 18.5997C57.9037 13.9833 57.0053 9.7736 55.4389 6.12996C53.9399 2.64556 51.5315 0.413026 48.4426 0.215944C45.0213 -5.67585e-05 41.0983 2.28136 39.0395 6.70702C37.1423 10.7858 35.6245 14.975 34.7041 17.1113C33.7696 19.2792 32.3976 20.6147 30.2871 20.8385C27.7062 21.1113 25.4844 19.2288 23.8553 16.5437C22.4363 14.2024 19.6218 9.7468 18.1165 8.24898C16.7038 6.84103 15.0888 5.08149 11.7255 5.1351Z" fill="#00A9E0"/>
</g>
<defs>
<clipPath id="clip0_72_141">
<rect width="59" height="43" fill="white"/>
</clipPath>
</defs>
</svg>
